<?xml version="1.0" encoding="iso-8859-1"?>
<!-- Generator: Adobe Illustrator 19.0.0, SVG Export Plug-In . SVG Version: 6.00 Build 0)  -->
<svg version="1.1" id="Capa_1" xmlns="http://www.w3.org/2000/svg" xmlns:xlink="http://www.w3.org/1999/xlink" x="0px" y="0px"
	 viewBox="0 0 470 470" style="enable-background:new 0 0 470 470;" xml:space="preserve">
<g>
	<path style="fill:#F59B45;" d="M261.416,342.596l88.178,88.178l81.178-81.179l-88.178-88.178c-2.929-2.929-2.929-7.678,0-10.606
		c0.003-0.003-10.503-10.509-10.503-10.509l-91.788,91.788l10.506,10.506C253.739,339.668,258.487,339.668,261.416,342.596z
		 M271.928,321.479c2.93-2.929,7.678-2.929,10.607,0l72.362,72.362c2.929,2.929,2.929,7.678,0,10.606
		c-1.465,1.464-3.385,2.197-5.304,2.197s-3.839-0.732-5.304-2.197l-72.362-72.362C268.999,329.156,268.999,324.407,271.928,321.479z
		"/>
	
		<rect x="108.659" y="58.692" transform="matrix(-0.7071 -0.7071 0.7071 -0.7071 116.0905 280.273)" style="fill:#F59B45;" width="14.865" height="114.803"/>
	<path style="fill:#F59B45;" d="M219.186,127.398c-0.001,0.002-70.669,70.669-70.669,70.669c-1.465,1.464-3.385,2.197-5.304,2.197
		c-1.92,0-3.839-0.732-5.304-2.197c-2.929-2.929-2.929-7.678,0-10.606l65.364-65.363l-30.73-30.73l-81.178,81.178l36.034,36.033
		c2.929,2.929,2.929,7.678,0,10.606c0,0,10.512,10.513,10.512,10.513l91.788-91.788L219.186,127.398z"/>
	<path style="fill:#B9A9A2;" d="M20.833,76.815c7.618,21.96,21.945,45.348,38.936,63.875l80.919-80.919
		C122.162,42.78,98.774,28.454,76.813,20.835c-24.345-8.447-43.952-7.649-53.79,2.188C13.184,32.861,12.386,52.468,20.833,76.815z"
		/>
	<path style="fill:#B9A9A2;" d="M423.354,15.004c-26.958,0-65.496,18.528-94.057,44.753l80.933,80.933
		c16.991-18.527,31.318-41.915,38.936-63.875c8.447-24.347,7.649-43.954-2.189-53.792C441.656,17.702,433.708,15.004,423.354,15.004
		z"/>
	
		<rect x="346.476" y="58.692" transform="matrix(-0.7071 0.7071 -0.7071 -0.7071 686.2493 -52.0671)" style="fill:#E9B264;" width="14.865" height="114.803"/>
	<path style="fill:#E9B264;" d="M120.406,430.774l215.992-215.992l-51.285-51.285c-2.929-2.929-2.929-7.678,0-10.606
		c2.93-2.929,7.678-2.929,10.607,0l51.284,51.284l31.63-31.63l-81.178-81.178l-31.63,31.63l8.776,8.776
		c2.929,2.929,2.929,7.678,0,10.606c-1.465,1.464-3.385,2.197-5.304,2.197s-3.839-0.732-5.304-2.197l-8.775-8.775L39.227,349.595
		L120.406,430.774z M113.536,296.303l136.376-136.376c2.928-2.929,7.676-2.93,10.607,0c2.929,2.929,2.929,7.678,0,10.606
		L124.143,306.909c-1.465,1.464-3.385,2.197-5.304,2.197s-3.839-0.732-5.304-2.197C110.607,303.981,110.607,299.232,113.536,296.303
		z M92.418,317.421c2.931-2.929,7.679-2.929,10.607,0c2.929,2.929,2.929,7.678,0,10.606l-26.869,26.869
		c-1.465,1.464-3.385,2.197-5.304,2.197c-1.92,0-3.839-0.732-5.304-2.197c-2.929-2.929-2.929-7.678,0-10.606L92.418,317.421z"/>
	<path style="fill:#FFFFFF;" d="M118.839,309.106c1.919,0,3.839-0.732,5.304-2.197l136.376-136.376
		c2.929-2.929,2.929-7.678,0-10.606c-2.932-2.93-7.68-2.929-10.607,0L113.536,296.303c-2.929,2.929-2.929,7.678,0,10.606
		C115,308.374,116.92,309.106,118.839,309.106z"/>
	<path style="fill:#FFFFFF;" d="M65.549,354.896c1.465,1.465,3.384,2.197,5.304,2.197c1.919,0,3.839-0.732,5.304-2.197
		l26.869-26.869c2.929-2.929,2.929-7.678,0-10.606c-2.929-2.929-7.677-2.929-10.607,0l-26.869,26.869
		C62.621,347.218,62.621,351.967,65.549,354.896z"/>
	<path style="fill:#34150C;" d="M446.682,344.292l-93.48-93.481c-2.928-2.928-7.673-2.929-10.604-0.003
		c-2.932,2.931-2.932,7.68-0.003,10.609l88.178,88.178l-81.178,81.179l-88.178-88.178c-2.93-2.929-7.677-2.929-10.607,0
		c-2.929,2.929-2.929,7.678,0,10.607l93.481,93.481c1.407,1.407,3.314,2.197,5.304,2.197s3.896-0.79,5.304-2.197l91.784-91.785
		C449.611,351.97,449.611,347.221,446.682,344.292z"/>
	<path style="fill:#34150C;" d="M127.399,208.578l-36.034-36.033l81.178-81.178l30.73,30.73L137.91,187.46
		c-2.929,2.929-2.929,7.678,0,10.606c1.465,1.465,3.384,2.197,5.304,2.197c1.919,0,3.839-0.732,5.304-2.197l70.667-70.666
		c2.929-2.931,2.928-7.678,0-10.606l-62.455-62.455C135.965,33.575,107.928,15.753,81.73,6.664
		C51.302-3.894,26.683-1.851,12.415,12.417C-1.852,26.685-3.895,51.301,6.662,81.732c9.089,26.198,26.912,54.235,47.675,74.999
		l62.455,62.455c1.465,1.464,3.384,2.197,5.304,2.197c1.919,0,3.838-0.732,5.303-2.196
		C130.328,216.256,130.328,211.507,127.399,208.578z M80.758,161.938l-10.511-10.511l81.178-81.178l10.511,10.511L80.758,161.938z
		 M76.813,20.835c21.961,7.619,45.349,21.945,63.876,38.936l-80.919,80.919c-16.991-18.527-31.318-41.915-38.936-63.875
		c-8.447-24.347-7.649-43.954,2.189-53.792C32.861,13.186,52.468,12.388,76.813,20.835z"/>
	<path style="fill:#34150C;" d="M467.8,365.41c-2.93-2.929-7.678-2.929-10.607,0l-91.784,91.785c-2.929,2.929-2.929,7.678,0,10.606
		c1.465,1.464,3.385,2.197,5.304,2.197s3.839-0.732,5.304-2.197l91.784-91.785C470.729,373.088,470.729,368.339,467.8,365.41z"/>
	<path style="fill:#34150C;" d="M415.663,156.73c20.763-20.763,38.586-48.8,47.675-74.999c10.557-30.431,8.514-55.047-5.754-69.314
		c-8.237-8.237-19.754-12.413-34.23-12.413c-32.824,0-78.092,22.343-110.083,54.334l-175.36,175.359L23.317,344.292
		c-1.406,1.406-2.196,3.314-2.196,5.303s0.79,3.897,2.196,5.303l91.785,91.785c1.465,1.464,3.384,2.197,5.304,2.197
		c1.919,0,3.839-0.732,5.304-2.197L415.663,156.73z M318.575,70.249l81.178,81.178l-10.511,10.511L308.063,80.76L318.575,70.249z
		 M449.166,76.815c-7.618,21.96-21.945,45.348-38.936,63.875l-80.933-80.933c28.561-26.226,67.099-44.753,94.057-44.753
		c10.354,0,18.302,2.698,23.623,8.02C456.816,32.861,457.614,52.468,449.166,76.815z M255.219,133.604l8.775,8.775
		c1.465,1.464,3.385,2.197,5.304,2.197s3.839-0.732,5.304-2.197c2.929-2.929,2.929-7.678,0-10.606l-8.776-8.776l31.63-31.63
		l81.178,81.178l-31.63,31.63l-51.284-51.284c-2.93-2.929-7.678-2.929-10.607,0c-2.929,2.929-2.929,7.678,0,10.606l51.285,51.285
		L120.406,430.774l-81.179-81.179L255.219,133.604z"/>
	<path style="fill:#34150C;" d="M12.806,365.41c-2.93-2.929-7.678-2.929-10.607,0c-2.929,2.929-2.929,7.678,0,10.606l91.785,91.785
		c1.465,1.464,3.385,2.197,5.304,2.197s3.839-0.732,5.304-2.197c2.929-2.929,2.929-7.678,0-10.606L12.806,365.41z"/>
	<path style="fill:#FFFFFF;" d="M344.29,404.447c1.465,1.464,3.385,2.197,5.304,2.197s3.839-0.732,5.304-2.197
		c2.929-2.929,2.929-7.678,0-10.606l-72.362-72.362c-2.93-2.929-7.678-2.929-10.607,0c-2.929,2.929-2.929,7.678,0,10.606
		L344.29,404.447z"/>
</g>
<g>
</g>
<g>
</g>
<g>
</g>
<g>
</g>
<g>
</g>
<g>
</g>
<g>
</g>
<g>
</g>
<g>
</g>
<g>
</g>
<g>
</g>
<g>
</g>
<g>
</g>
<g>
</g>
<g>
</g>
</svg>
